<svg width="261" height="92" viewBox="0 0 261 92" fill="none" xmlns="http://www.w3.org/2000/svg">
    <path d="M4.55114 70H15.6222V51.4375H23.7017L33.6222 70H45.8438L34.7216 49.6477C40.679 47.0909 43.9773 41.9006 43.9773 34.7415C43.9773 24.3352 37.0994 17.6364 25.2102 17.6364H4.55114V70ZM15.6222 42.5398V26.6875H23.0881C29.4801 26.6875 32.5739 29.5256 32.5739 34.7415C32.5739 39.9318 29.4801 42.5398 23.1392 42.5398H15.6222ZM68.8615 70.767C78.5774 70.767 85.1229 66.0369 86.657 58.75L76.5831 58.0852C75.4837 61.0767 72.6712 62.6364 69.0405 62.6364C63.5945 62.6364 60.1428 59.0312 60.1428 53.1761V53.1506H86.8871V50.1591C86.8871 36.8125 78.8075 30.2159 68.4268 30.2159C56.87 30.2159 49.3786 38.4233 49.3786 50.5426C49.3786 62.9943 56.7678 70.767 68.8615 70.767ZM60.1428 46.4006C60.3729 41.9261 63.7734 38.3466 68.6058 38.3466C73.3359 38.3466 76.6087 41.7216 76.6342 46.4006H60.1428ZM94.1996 70H104.938V63.7102H105.424C106.933 66.983 110.231 70.6392 116.572 70.6392C125.521 70.6392 132.501 63.5568 132.501 50.4148C132.501 36.9148 125.214 30.2159 116.597 30.2159C110.026 30.2159 106.881 34.1278 105.424 37.3239H105.092V17.6364H94.1996V70ZM104.862 50.3636C104.862 43.358 107.827 38.8835 113.12 38.8835C118.515 38.8835 121.379 43.5625 121.379 50.3636C121.379 57.2159 118.464 61.9716 113.12 61.9716C107.879 61.9716 104.862 57.3693 104.862 50.3636ZM150.967 70.7415C156.771 70.7415 160.53 68.2102 162.447 64.554H162.754V70H173.084V43.5114C173.084 34.1534 165.158 30.2159 156.413 30.2159C147.004 30.2159 140.817 34.7159 139.308 41.875L149.382 42.6932C150.124 40.0852 152.45 38.1676 156.362 38.1676C160.07 38.1676 162.192 40.0341 162.192 43.2557V43.4091C162.192 45.9403 159.507 46.2727 152.68 46.9375C144.908 47.6534 137.928 50.2614 137.928 59.0312C137.928 66.804 143.476 70.7415 150.967 70.7415ZM154.087 63.2244C150.737 63.2244 148.334 61.6648 148.334 58.6733C148.334 55.6051 150.865 54.0966 154.7 53.5597C157.078 53.2273 160.964 52.6648 162.268 51.7955V55.9631C162.268 60.0795 158.868 63.2244 154.087 63.2244ZM214.21 41.9261C213.239 34.6903 207.409 30.2159 197.489 30.2159C187.44 30.2159 180.818 34.8693 180.844 42.4375C180.818 48.3182 184.526 52.1278 192.196 53.6619L198.997 55.017C202.423 55.7074 203.983 56.9602 204.034 58.929C203.983 61.2557 201.452 62.9176 197.642 62.9176C193.756 62.9176 191.173 61.2557 190.509 58.0597L179.795 58.6222C180.818 66.1392 187.21 70.767 197.616 70.767C207.793 70.767 215.08 65.5767 215.105 57.8295C215.08 52.1534 211.372 48.7528 203.753 47.1932L196.645 45.7614C192.989 44.9688 191.634 43.7159 191.659 41.8239C191.634 39.4716 194.293 37.9375 197.668 37.9375C201.452 37.9375 203.702 40.0085 204.239 42.5398L214.21 41.9261ZM239.862 70.767C249.577 70.767 256.123 66.0369 257.657 58.75L247.583 58.0852C246.484 61.0767 243.671 62.6364 240.04 62.6364C234.594 62.6364 231.143 59.0312 231.143 53.1761V53.1506H257.887V50.1591C257.887 36.8125 249.808 30.2159 239.427 30.2159C227.87 30.2159 220.379 38.4233 220.379 50.5426C220.379 62.9943 227.768 70.767 239.862 70.767ZM231.143 46.4006C231.373 41.9261 234.773 38.3466 239.606 38.3466C244.336 38.3466 247.609 41.7216 247.634 46.4006H231.143Z" fill="#222222"/>
    <path d="M89.6484 84.5483H260.648V91.4261H89.6484V84.5483Z" fill="#222222"/>
</svg>
